<?xml version="1.0" encoding="UTF-8"?>
<svg xmlns="http://www.w3.org/2000/svg" xmlns:xlink="http://www.w3.org/1999/xlink" version="1.1" viewBox="0 0 157.9 46.3">
  <defs>
    <style>
      .cls-1 {
        fill: none;
      }

      .cls-2 {
        isolation: isolate;
      }

      .cls-2, .cls-3 {
        fill: #ed766e;
      }

      .cls-2, .cls-4 {
        opacity: .4;
      }

      .cls-5 {
        clip-path: url(#clippath);
      }
    </style>
    <clipPath id="clippath">
      <rect class="cls-1" y="0" width="42.2" height="46.3"/>
    </clipPath>
  </defs>
  <!-- Generator: Adobe Illustrator 28.6.0, SVG Export Plug-In . SVG Version: 1.2.0 Build 709)  -->
  <g>
    <g id="Layer_1">
      <g id="Layer_1-2" data-name="Layer_1">
        <g id="Group_481">
          <path id="Path_981" class="cls-3" d="M62.1,36.9h-5.7V15.7h5.7v21.2ZM55.7,8.8c0-.9.4-1.9,1-2.5.6-.7,1.6-1.1,2.5-1.1s1.8.4,2.5,1c.7.7,1.1,1.6,1,2.5,0,.9-.4,1.8-1,2.5-.7.7-1.6,1-2.5,1s-1.8-.4-2.5-1-1-1.5-1-2.5h0ZM73.9,30.7c1,1,2.4,1.6,3.8,1.6s2.8-.6,3.8-1.6c1.1-1.2,1.7-2.8,1.6-4.4,0-1.6-.5-3.2-1.6-4.4-1-1-2.4-1.6-3.8-1.6s-2.8.6-3.8,1.6c-1.1,1.2-1.7,2.8-1.6,4.4,0,1.6.5,3.2,1.5,4.4h0ZM69.8,18.2c2.1-2.1,5-3.3,8-3.2,3,0,5.8,1.1,7.9,3.2s3.3,5,3.2,8c0,3-1,5.9-3.2,8-2.1,2.1-5,3.3-7.9,3.2-3,0-5.8-1.1-7.9-3.2-2.1-2.1-3.3-5-3.2-8,0-3,1-5.9,3.1-8ZM103.1,10.5c-.7,0-1.5.2-2.1.7-.6.6-1,1.4-.9,2.3v2.3h4.8v4.9h-4.8v16.3h-5.8v-16.3h-3.5v-4.9h3.5v-2.4c0-2.1.7-4.2,2.1-5.7,1.5-1.5,3.5-2.3,5.6-2.1,1,0,1.9,0,2.8.4v4.8c-.6-.2-1.2-.2-1.8-.2h.1ZM121.5,15.6v5.8c-.6-.1-1.1-.2-1.7-.2-1.5,0-2.9.4-4,1.4-1,.9-1.5,2.5-1.5,4.6v9.7h-5.7V15.7h5.5v3.1c1-2.2,3-3.3,6-3.3s.8,0,1.3,0h0ZM131.3,36.9h-5.7V15.7h5.5v2.6c.6-1,1.5-1.8,2.6-2.3,1.1-.6,2.4-.9,3.6-.9,3.1,0,5.2,1.2,6.3,3.5,1.4-2.3,4-3.7,6.7-3.5,2,0,4,.7,5.4,2,1.5,1.3,2.2,3.4,2.2,6v13.7h-5.5v-12.6c0-1-.3-2.1-.9-2.9-.7-.8-1.8-1.2-2.8-1.1-1.1,0-2.1.4-2.8,1.2-.7.8-1.1,1.9-1.1,3v12.4h-5.7v-12.6c0-1-.3-2.1-.9-2.9-.7-.8-1.7-1.2-2.8-1.1-1.1,0-2.1.4-2.9,1.2-.7.8-1.1,1.9-1.1,3v12.4h-.1Z"/>
          <g id="Group_479">
            <g id="Group_478">
              <g class="cls-5">
                <g id="Group_477" class="cls-4">
                  <path id="Path_964" class="cls-3" d="M9.7,46.2c-2.9,0-5.4-2.1-5.8-5L.2,14.9c-.5-3.2,1.7-6.1,4.9-6.6h0l7.1-1,.7,4.4-7.1,1.1c-.7,0-1.3.8-1.2,1.5h0l3.8,26.2c.1.7.8,1.3,1.5,1.2l19.8-2.8c.6,0,1-.6.9-1.2h0l-.2-1.6,4.5-.7.2,1.6c.4,3.1-1.7,5.9-4.8,6.3l-19.8,2.9h-.8Z"/>
                </g>
              </g>
            </g>
            <path id="Path_965" class="cls-3" d="M36.4,37.9h-19.8c-3.2,0-5.8-2.6-5.8-5.8h0V5.9C10.8,2.7,13.4,0,16.6,0h19.8C39.6,0,42.2,2.6,42.2,5.8h0v26.1c0,3.2-2.6,5.8-5.8,5.9h0ZM16.6,4.5c-.7,0-1.3.6-1.3,1.3h0v26.1c0,.7.6,1.3,1.3,1.3h19.8c.7,0,1.3-.6,1.3-1.3h0V5.9c0-.7-.6-1.3-1.3-1.3h-19.8Z"/>
            <path id="Path_966" class="cls-2" d="M31.4,19.8c0,2.6-2.1,4.8-4.8,4.8s-4.8-2.1-4.8-4.8h9.6Z"/>
            <path id="Path_967" class="cls-2" d="M22.4,15.3c0,1-.8,1.8-1.8,1.8s-1.8-.8-1.8-1.8.8-1.8,1.8-1.8,1.8.8,1.8,1.8h0Z"/>
            <path id="Path_968" class="cls-2" d="M34.1,15.3c0,1-.8,1.8-1.8,1.8s-1.8-.8-1.8-1.8.8-1.8,1.8-1.8,1.8.8,1.8,1.8h0Z"/>
          </g>
        </g>
      </g>
    </g>
  </g>
</svg>